<?xml version="1.0" standalone="no"?>
<!DOCTYPE svg PUBLIC "-//W3C//DTD SVG 20010904//EN"
 "http://www.w3.org/TR/2001/REC-SVG-20010904/DTD/svg10.dtd">
<svg version="1.0" xmlns="http://www.w3.org/2000/svg"
 width="1023.000000pt" height="1023.000000pt" viewBox="0 0 1023.000000 1023.000000"
 preserveAspectRatio="xMidYMid meet">

<g transform="translate(0.000000,1023.000000) scale(0.100000,-0.100000)"
fill="#000000" stroke="none">
<path d="M620 8525 l0 -1085 1085 0 1085 0 0 1085 0 1085 -1085 0 -1085 0 0
-1085z m1860 0 l0 -775 -775 0 -775 0 0 775 0 775 775 0 775 0 0 -775z"/>
<path d="M1240 8525 l0 -465 465 0 465 0 0 465 0 465 -465 0 -465 0 0 -465z"/>
<path d="M3100 9140 l0 -470 160 0 160 0 0 155 0 155 305 0 305 0 0 -150 0
-150 -155 0 -155 0 0 -155 0 -155 -155 0 -155 0 0 -155 0 -155 -155 0 -155 0
0 -620 0 -620 -150 0 -150 0 0 155 0 155 -160 0 -160 0 0 -160 0 -160 155 0
155 0 0 -150 0 -150 -770 0 -770 0 0 150 0 150 465 0 465 0 0 160 0 160 -470
0 -470 0 0 -155 0 -155 -155 0 -155 0 0 -315 0 -315 155 0 155 0 0 -150 0
-150 -155 0 -155 0 0 -155 0 -155 -155 0 -155 0 0 -315 0 -315 155 0 155 0 0
-155 0 -155 155 0 155 0 0 -310 0 -310 155 0 155 0 0 -155 0 -155 155 0 155 0
0 -150 0 -150 -310 0 -310 0 0 -160 0 -160 315 0 315 0 0 155 0 155 150 0 150
0 0 -155 0 -155 315 0 315 0 0 155 0 155 150 0 150 0 0 -310 0 -310 160 0 160
0 0 315 0 315 -155 0 -155 0 0 310 0 310 -310 0 -310 0 0 150 0 150 465 0 465
0 0 470 0 470 -155 0 -155 0 0 150 0 150 155 0 155 0 0 155 0 155 465 0 465 0
0 315 0 315 -310 0 -310 0 0 150 0 150 155 0 155 0 0 155 0 155 150 0 150 0 0
-155 0 -155 160 0 160 0 0 155 0 155 150 0 150 0 0 -155 0 -155 155 0 155 0 0
-150 0 -150 -310 0 -310 0 0 -160 0 -160 470 0 470 0 0 465 0 465 155 0 155 0
0 620 0 620 150 0 150 0 0 -465 0 -465 155 0 155 0 0 -150 0 -150 -155 0 -155
0 0 -155 0 -155 -155 0 -155 0 0 -160 0 -160 160 0 160 0 0 155 0 155 155 0
155 0 0 155 0 155 155 0 155 0 0 155 0 155 155 0 155 0 0 160 0 160 -160 0
-160 0 0 -155 0 -155 -150 0 -150 0 0 305 0 305 155 0 155 0 0 310 0 310 155
0 155 0 0 160 0 160 -155 0 -155 0 0 150 0 150 155 0 155 0 0 160 0 160 -160
0 -160 0 0 -155 0 -155 -150 0 -150 0 0 155 0 155 -625 0 -625 0 0 -155 0
-155 -155 0 -155 0 0 -160 0 -160 310 0 310 0 0 -150 0 -150 -460 0 -460 0 0
310 0 310 -155 0 -155 0 0 155 0 155 -160 0 -160 0 0 -155 0 -155 -305 0 -305
0 0 155 0 155 -160 0 -160 0 0 -470z m1240 0 l0 -150 -150 0 -150 0 0 150 0
150 150 0 150 0 0 -150z m2170 0 l0 -150 -150 0 -150 0 0 150 0 150 150 0 150
0 0 -150z m-310 -310 l0 -150 -150 0 -150 0 0 150 0 150 150 0 150 0 0 -150z
m-1550 -310 l0 -150 -305 0 -305 0 0 150 0 150 305 0 305 0 0 -150z m1860 0
l0 -150 -150 0 -150 0 0 150 0 150 150 0 150 0 0 -150z m-930 -310 l0 -150
-155 0 -155 0 0 -155 0 -155 -155 0 -155 0 0 -155 0 -155 -150 0 -150 0 0 305
0 305 155 0 155 0 0 155 0 155 305 0 305 0 0 -150z m-1860 -465 l0 -305 -150
0 -150 0 0 305 0 305 150 0 150 0 0 -305z m620 0 l0 -305 -150 0 -150 0 0 305
0 305 150 0 150 0 0 -305z m1240 -155 l0 -150 -150 0 -150 0 0 150 0 150 150
0 150 0 0 -150z m-1550 -310 l0 -150 -150 0 -150 0 0 150 0 150 150 0 150 0 0
-150z m1240 0 l0 -150 -150 0 -150 0 0 150 0 150 150 0 150 0 0 -150z m-1550
-310 l0 -150 -150 0 -150 0 0 150 0 150 150 0 150 0 0 -150z m-310 -310 l0
-150 -150 0 -150 0 0 150 0 150 150 0 150 0 0 -150z m310 -310 l0 -150 -150 0
-150 0 0 150 0 150 150 0 150 0 0 -150z m-930 -310 l0 -150 -615 0 -615 0 0
150 0 150 615 0 615 0 0 -150z m-1240 -310 l0 -150 -150 0 -150 0 0 150 0 150
150 0 150 0 0 -150z m1550 0 l0 -150 -150 0 -150 0 0 150 0 150 150 0 150 0 0
-150z m-1860 -310 l0 -150 -150 0 -150 0 0 150 0 150 150 0 150 0 0 -150z
m1550 0 l0 -150 -150 0 -150 0 0 150 0 150 150 0 150 0 0 -150z m-930 -470 l0
-310 155 0 155 0 0 -150 0 -150 -155 0 -155 0 0 -155 0 -155 -150 0 -150 0 0
465 0 465 -155 0 -155 0 0 150 0 150 305 0 305 0 0 -310z m1240 160 l0 -150
-150 0 -150 0 0 150 0 150 150 0 150 0 0 -150z m-310 -310 l0 -150 -150 0
-150 0 0 150 0 150 150 0 150 0 0 -150z m0 -1240 l0 -150 -305 0 -305 0 0 150
0 150 305 0 305 0 0 -150z"/>
<path d="M7440 8525 l0 -1085 1085 0 1085 0 0 1085 0 1085 -1085 0 -1085 0 0
-1085z m1860 0 l0 -775 -775 0 -775 0 0 775 0 775 775 0 775 0 0 -775z"/>
<path d="M8060 8525 l0 -465 465 0 465 0 0 465 0 465 -465 0 -465 0 0 -465z"/>
<path d="M7130 6820 l0 -310 -155 0 -155 0 0 -160 0 -160 155 0 155 0 0 -150
0 -150 -155 0 -155 0 0 -155 0 -155 -460 0 -460 0 0 150 0 150 155 0 155 0 0
160 0 160 -160 0 -160 0 0 -155 0 -155 -620 0 -620 0 0 -155 0 -155 -155 0
-155 0 0 -465 0 -465 -150 0 -150 0 0 155 0 155 -160 0 -160 0 0 -160 0 -160
155 0 155 0 0 -460 0 -460 -150 0 -150 0 0 155 0 155 -160 0 -160 0 0 -160 0
-160 155 0 155 0 0 -155 0 -155 155 0 155 0 0 -150 0 -150 -155 0 -155 0 0
-160 0 -160 155 0 155 0 0 -150 0 -150 -310 0 -310 0 0 -155 0 -155 -155 0
-155 0 0 -470 0 -470 310 0 310 0 0 -310 0 -310 315 0 315 0 0 160 0 160 -155
0 -155 0 0 150 0 150 155 0 155 0 0 310 0 310 155 0 155 0 0 155 0 155 155 0
155 0 0 160 0 160 -160 0 -160 0 0 -155 0 -155 -155 0 -155 0 0 -155 0 -155
-150 0 -150 0 0 305 0 305 155 0 155 0 0 155 0 155 460 0 460 0 0 -460 0 -460
-155 0 -155 0 0 -310 0 -310 -155 0 -155 0 0 -160 0 -160 310 0 310 0 0 -155
0 -155 470 0 470 0 0 160 0 160 -155 0 -155 0 0 310 0 310 -155 0 -155 0 0
150 0 150 305 0 305 0 0 -310 0 -310 465 0 465 0 0 -155 0 -155 155 0 155 0 0
-155 0 -155 160 0 160 0 0 160 0 160 -155 0 -155 0 0 150 0 150 305 0 305 0 0
-310 0 -310 160 0 160 0 0 155 0 155 150 0 150 0 0 -155 0 -155 160 0 160 0 0
155 0 155 155 0 155 0 0 315 0 315 -155 0 -155 0 0 305 0 305 150 0 150 0 0
-155 0 -155 160 0 160 0 0 160 0 160 -155 0 -155 0 0 155 0 155 -160 0 -160 0
0 -155 0 -155 -150 0 -150 0 0 155 0 155 -155 0 -155 0 0 150 0 150 155 0 155
0 0 155 0 155 150 0 150 0 0 -155 0 -155 315 0 315 0 0 160 0 160 -310 0 -310
0 0 150 0 150 310 0 310 0 0 160 0 160 -310 0 -310 0 0 150 0 150 310 0 310 0
0 315 0 315 -465 0 -465 0 0 155 0 155 -310 0 -310 0 0 150 0 150 310 0 310 0
0 155 0 155 150 0 150 0 0 -155 0 -155 315 0 315 0 0 315 0 315 -155 0 -155 0
0 155 0 155 -155 0 -155 0 0 305 0 305 150 0 150 0 0 -155 0 -155 160 0 160 0
0 315 0 315 -470 0 -470 0 0 -155 0 -155 -305 0 -305 0 0 155 0 155 -470 0
-470 0 0 -310z m930 -470 l0 -150 -150 0 -150 0 0 150 0 150 150 0 150 0 0
-150z m620 0 l0 -150 -150 0 -150 0 0 150 0 150 150 0 150 0 0 -150z m-310
-315 l0 -155 155 0 155 0 0 -150 0 -150 -305 0 -305 0 0 305 0 305 150 0 150
0 0 -155z m620 5 l0 -150 -150 0 -150 0 0 150 0 150 150 0 150 0 0 -150z
m-1240 -310 l0 -150 -150 0 -150 0 0 150 0 150 150 0 150 0 0 -150z m-2480
-315 l0 -155 160 0 160 0 0 155 0 155 150 0 150 0 0 -310 0 -310 315 0 315 0
0 155 0 155 150 0 150 0 0 -155 0 -155 620 0 620 0 0 -155 0 -155 155 0 155 0
0 -150 0 -150 -465 0 -465 0 0 -465 0 -465 -465 0 -465 0 0 -155 0 -155 -155
0 -155 0 0 -160 0 -160 155 0 155 0 0 -150 0 -150 -310 0 -310 0 0 -155 0
-155 -150 0 -150 0 0 460 0 460 155 0 155 0 0 470 0 470 -160 0 -160 0 0 -155
0 -155 -305 0 -305 0 0 150 0 150 155 0 155 0 0 160 0 160 -155 0 -155 0 0
155 0 155 -155 0 -155 0 0 150 0 150 155 0 155 0 0 310 0 310 150 0 150 0 0
-155z m2790 5 l0 -150 -150 0 -150 0 0 150 0 150 150 0 150 0 0 -150z m-3100
-1240 l0 -150 -150 0 -150 0 0 150 0 150 150 0 150 0 0 -150z m3720 0 l0 -150
-150 0 -150 0 0 150 0 150 150 0 150 0 0 -150z m-4030 -310 l0 -150 -150 0
-150 0 0 150 0 150 150 0 150 0 0 -150z m3720 -5 l0 -155 310 0 310 0 0 -150
0 -150 -155 0 -155 0 0 -155 0 -155 -150 0 -150 0 0 155 0 155 -155 0 -155 0
0 155 0 155 -155 0 -155 0 0 150 0 150 305 0 305 0 0 -155z m-4030 -305 l0
-150 -150 0 -150 0 0 150 0 150 150 0 150 0 0 -150z m620 -310 l0 -150 -150 0
-150 0 0 150 0 150 150 0 150 0 0 -150z m3100 -620 l0 -460 -460 0 -460 0 0
460 0 460 460 0 460 0 0 -460z m-1240 -620 l0 -150 -150 0 -150 0 0 150 0 150
150 0 150 0 0 -150z m-2790 -465 l0 -305 -150 0 -150 0 0 305 0 305 150 0 150
0 0 -305z m3720 155 l0 -150 -150 0 -150 0 0 150 0 150 150 0 150 0 0 -150z
m620 0 l0 -150 -150 0 -150 0 0 150 0 150 150 0 150 0 0 -150z m-2790 -620 l0
-150 -150 0 -150 0 0 150 0 150 150 0 150 0 0 -150z m3410 0 l0 -150 -150 0
-150 0 0 150 0 150 150 0 150 0 0 -150z"/>
<path d="M5270 4800 l0 -160 160 0 160 0 0 160 0 160 -160 0 -160 0 0 -160z"/>
<path d="M6200 4180 l0 -470 160 0 160 0 0 155 0 155 150 0 150 0 0 -155 0
-155 160 0 160 0 0 470 0 470 -160 0 -160 0 0 -155 0 -155 -150 0 -150 0 0
155 0 155 -160 0 -160 0 0 -470z"/>
<path d="M7440 2630 l0 -160 160 0 160 0 0 160 0 160 -160 0 -160 0 0 -160z"/>
<path d="M3720 5420 l0 -160 160 0 160 0 0 160 0 160 -160 0 -160 0 0 -160z"/>
<path d="M620 3715 l0 -625 160 0 160 0 0 625 0 625 -160 0 -160 0 0 -625z"/>
<path d="M620 1705 l0 -1085 1085 0 1085 0 0 1085 0 1085 -1085 0 -1085 0 0
-1085z m1860 0 l0 -775 -775 0 -775 0 0 775 0 775 775 0 775 0 0 -775z"/>
<path d="M1240 1705 l0 -465 465 0 465 0 0 465 0 465 -465 0 -465 0 0 -465z"/>
<path d="M6510 770 l0 -160 160 0 160 0 0 160 0 160 -160 0 -160 0 0 -160z"/>
</g>
</svg>
