<?xml version="1.0" standalone="no"?>
<!DOCTYPE svg PUBLIC "-//W3C//DTD SVG 20010904//EN"
 "http://www.w3.org/TR/2001/REC-SVG-20010904/DTD/svg10.dtd">
<svg version="1.0" xmlns="http://www.w3.org/2000/svg"
 width="3359.000000pt" height="1047.000000pt" viewBox="0 0 3359.000000 1047.000000"
 preserveAspectRatio="xMidYMid meet">

<g transform="translate(0.000000,1047.000000) scale(0.100000,-0.100000)"
fill="#000000" stroke="none">
<path d="M4901 9639 c-287 -51 -508 -262 -572 -546 -17 -79 -12 -239 11 -321
93 -334 407 -549 747 -511 282 32 508 221 594 499 33 106 33 274 0 380 -39
127 -87 206 -181 301 -130 131 -273 194 -460 204 -47 2 -109 0 -139 -6z"/>
<path d="M6145 8820 c-161 -18 -286 -80 -406 -200 -138 -137 -202 -291 -202
-485 0 -62 6 -125 17 -165 19 -74 73 -193 104 -230 l21 -25 2 70 c2 140 -2
252 -14 355 -20 173 -16 255 15 322 37 79 98 142 177 181 60 29 74 32 161 32
78 0 103 -4 141 -23 180 -89 224 -235 224 -747 -1 -199 -5 -283 -18 -357 -9
-54 -17 -102 -17 -107 0 -4 28 -14 63 -21 34 -7 105 -28 158 -46 280 -97 522
-252 882 -566 l38 -33 -114 -81 c-329 -237 -581 -506 -716 -764 -27 -52 -60
-126 -74 -165 -24 -69 -25 -71 -8 -136 22 -86 43 -117 98 -141 80 -35 110 -21
211 101 64 77 201 118 302 91 30 -8 58 -26 86 -54 l40 -42 26 46 c39 69 140
191 221 266 137 126 384 300 577 407 36 20 85 53 110 74 28 24 72 47 122 64
108 37 180 82 269 169 61 61 85 95 123 170 85 172 113 394 67 529 -34 98 -78
158 -224 303 -640 638 -1303 1035 -1941 1163 -189 37 -416 57 -521 45z"/>
<path d="M7375 8625 c27 -22 94 -50 102 -41 3 3 -21 15 -102 52 l-30 14 30
-25z"/>
<path d="M5947 8620 c-92 -23 -180 -98 -219 -187 -23 -51 -26 -137 -8 -248 18
-119 24 -380 11 -495 -30 -263 -104 -432 -255 -588 -150 -155 -337 -264 -663
-386 -141 -53 -226 -163 -226 -294 -1 -157 103 -270 258 -280 81 -5 94 -2 274
70 776 307 1155 785 1212 1531 15 203 -10 586 -47 699 -42 128 -200 212 -337
178z"/>
<path d="M16140 7295 l0 -275 345 0 345 0 0 275 0 275 -345 0 -345 0 0 -275z"/>
<path d="M6301 7274 c-43 -137 -144 -337 -225 -446 -171 -230 -385 -405 -677
-553 l-130 -66 29 -52 c54 -96 169 -156 274 -144 88 11 150 48 261 156 l102
101 -110 0 -111 0 1 33 c2 41 14 77 26 77 5 0 9 6 9 14 0 7 7 19 16 27 13 11
42 10 166 -3 104 -11 156 -13 167 -6 12 7 125 -4 394 -37 l378 -48 107 104
107 104 -30 7 c-16 4 -187 26 -380 48 -192 23 -355 43 -362 45 -7 2 15 44 54
102 73 109 127 218 166 338 34 102 60 226 50 236 -9 9 -160 53 -213 63 l-35 6
-34 -106z"/>
<path d="M13350 6790 c0 -220 4 -370 9 -370 5 0 55 -63 110 -139 l101 -139 0
-153 c0 -130 3 -155 17 -171 23 -26 6 -53 -33 -53 -22 0 -30 5 -32 21 -2 11 4
27 13 34 12 10 15 39 15 162 l0 149 -97 135 -98 134 -3 -767 c-1 -478 2 -789
8 -823 35 -196 222 -388 418 -429 109 -23 228 -8 330 41 132 62 115 38 992
1423 442 699 810 1280 818 1293 l14 22 -404 0 -403 0 -545 -855 -545 -856 -3
856 -2 855 -75 0 -75 0 0 -650 0 -650 30 -42 c17 -23 44 -48 61 -55 23 -10 30
-18 27 -35 -2 -19 -9 -23 -38 -23 -31 0 -35 3 -35 27 -1 15 -15 47 -33 72
l-32 44 0 656 0 656 -75 0 -75 0 0 -264 c0 -226 2 -265 15 -276 9 -7 15 -23
13 -34 -2 -16 -10 -21 -32 -21 -38 0 -59 30 -33 49 15 12 17 38 17 280 l0 266
-170 0 -170 0 0 -370z m180 41 l0 -319 115 -158 115 -159 0 -322 0 -322 -70
-57 c-38 -31 -76 -68 -83 -83 -15 -33 -61 -41 -76 -14 -13 26 2 47 34 48 16 1
55 24 96 56 l69 54 0 321 0 321 -110 152 -110 151 0 325 c0 210 4 325 10 325
6 0 10 -113 10 -319z"/>
<path d="M13556 5423 c-11 -11 -6 -23 9 -23 8 0 15 4 15 9 0 13 -16 22 -24 14z"/>
<path d="M22082 5893 l3 -1268 24 -48 c35 -71 104 -142 169 -174 l57 -28 963
-3 962 -2 0 712 c0 692 -1 714 -20 738 -19 24 -20 45 -20 678 0 428 3 652 10
652 7 0 10 -223 10 -649 0 -423 3 -652 10 -656 7 -4 10 217 10 655 l0 660
-337 -2 -338 -3 -3 -1048 -2 -1047 -408 2 -407 3 -3 1048 -2 1047 -340 0 -340
0 2 -1267z m1808 937 l0 -320 115 -159 115 -159 0 -324 -1 -323 -70 -54 c-38
-30 -75 -66 -82 -80 -14 -31 -57 -40 -77 -16 -11 13 -11 18 2 31 8 9 26 17 40
18 14 2 55 27 91 56 l67 54 0 320 0 321 -110 150 -109 150 -1 328 c0 211 4
327 10 327 6 0 10 -113 10 -320z m180 61 c0 -221 2 -260 15 -271 27 -22 14
-55 -22 -58 -25 -3 -33 1 -38 19 -5 15 -2 26 9 34 14 11 16 44 16 274 0 167 4
261 10 261 6 0 10 -93 10 -259z m-241 -611 l101 -140 0 -156 c0 -133 2 -159
16 -169 11 -8 14 -19 9 -34 -5 -18 -13 -22 -38 -19 -36 3 -49 36 -22 58 12 10
15 39 15 161 l0 148 -96 132 c-100 137 -113 159 -96 159 5 0 55 -63 111 -140z"/>
<path d="M23910 5410 c0 -5 7 -10 15 -10 8 0 15 5 15 10 0 6 -7 10 -15 10 -8
0 -15 -4 -15 -10z"/>
<path d="M24050 6590 c0 -5 7 -10 15 -10 8 0 15 5 15 10 0 6 -7 10 -15 10 -8
0 -15 -4 -15 -10z"/>
<path d="M23900 5790 c0 -5 6 -10 14 -10 8 0 18 5 21 10 3 6 -3 10 -14 10 -12
0 -21 -4 -21 -10z"/>
<path d="M17382 7129 c-65 -25 -149 -105 -183 -174 -23 -48 -24 -60 -27 -272
l-3 -223 1085 0 c598 0 1086 3 1086 6 0 3 -100 158 -222 345 l-223 339 -730
-1 c-709 0 -731 -1 -783 -20z"/>
<path d="M19490 6805 l0 -345 340 0 340 0 0 -1045 0 -1045 340 0 340 0 0 1390
0 1390 -680 0 -680 0 0 -345z m1090 275 c0 -14 -7 -20 -22 -20 -13 -1 -34 -7
-48 -15 -35 -20 -884 -22 -878 -2 4 9 104 13 441 17 398 5 438 7 454 23 24 24
53 22 53 -3z m139 -108 c20 -16 44 -32 54 -35 20 -7 23 -33 5 -39 -18 -7 -38
1 -38 15 0 7 -16 24 -34 40 l-35 27 -207 0 -207 0 -98 -45 -98 -45 -216 0
c-137 0 -215 4 -215 10 0 6 76 10 209 10 l210 0 98 45 98 45 219 0 218 0 37
-28z m-669 -167 c7 -9 10 -19 6 -22 -4 -4 -62 -6 -129 -4 l-122 3 -87 -41
c-50 -22 -90 -36 -93 -30 -4 5 33 28 82 51 83 40 94 43 203 48 63 4 118 7 121
8 4 1 12 -5 19 -13z m-34 -156 c3 -6 0 -18 -9 -26 -11 -12 -19 -12 -35 -4 -13
7 -84 11 -181 11 -98 0 -161 4 -161 10 0 6 69 11 173 13 94 1 180 4 189 5 9 1
20 -3 24 -9z m484 -104 c14 -8 35 -14 47 -15 29 0 39 -18 20 -37 -14 -14 -19
-13 -47 11 l-32 26 -429 0 c-375 0 -429 2 -429 15 0 13 53 15 423 15 347 -1
426 -3 447 -15z"/>
<path d="M20980 6805 l0 -345 251 2 252 3 214 325 c118 179 219 333 224 343 9
16 -16 17 -466 17 l-475 0 0 -345z"/>
<path d="M24859 7136 c-93 -33 -175 -113 -209 -202 -18 -49 -20 -78 -20 -264
l0 -210 1086 0 c886 0 1085 2 1081 13 -3 7 -103 162 -223 345 l-219 332 -730
-1 c-571 0 -738 -3 -766 -13z"/>
<path d="M4730 6764 c-88 -18 -229 -68 -310 -109 -280 -141 -545 -418 -684
-715 -43 -94 -106 -268 -106 -296 0 -8 -4 -14 -9 -14 -5 0 -7 -8 -5 -17 3 -10
-4 -36 -16 -58 -23 -45 -25 -61 -7 -68 8 -4 6 -11 -9 -24 -17 -14 -23 -33 -27
-90 -4 -55 -3 -73 7 -73 9 0 16 -40 24 -137 34 -394 189 -751 456 -1054 186
-210 467 -393 708 -463 206 -60 76 -57 2733 -53 2221 3 2438 5 2524 20 147 26
237 54 346 107 256 124 399 333 461 675 26 145 27 515 0 634 -26 122 -80 280
-121 358 -65 123 -79 145 -158 239 -156 187 -328 322 -557 437 -275 138 -393
167 -1035 247 -264 33 -486 62 -492 65 -7 2 -10 11 -7 19 10 26 -114 -22 -167
-64 -26 -20 -84 -59 -130 -86 -189 -110 -510 -337 -522 -369 -4 -11 35 -244
53 -315 58 -234 192 -485 386 -730 75 -95 455 -478 637 -643 68 -62 143 -120
176 -137 224 -113 484 -12 562 219 33 98 25 206 -24 305 -35 70 -54 91 -280
304 -265 251 -345 333 -428 438 -188 238 -248 385 -271 671 -7 78 -10 144 -7
146 2 3 36 1 74 -4 39 -5 253 -31 476 -59 431 -53 550 -77 734 -145 174 -64
376 -184 465 -275 25 -25 53 -49 63 -53 9 -3 17 -11 17 -17 0 -19 61 -88 82
-93 10 -3 18 -12 16 -20 -2 -8 11 -36 29 -63 17 -27 37 -61 44 -76 7 -16 18
-28 25 -28 29 0 102 -185 130 -327 13 -63 18 -134 17 -253 -2 -324 -62 -537
-191 -672 -71 -74 -144 -119 -258 -157 -173 -58 -229 -61 -1251 -61 l-925 0
-47 -43 c-166 -148 -393 -151 -575 -5 l-59 48 -1143 0 c-1236 0 -1209 -1
-1372 54 -513 175 -926 736 -959 1304 -6 110 -6 112 15 112 18 0 22 6 22 34 0
18 3 54 6 80 6 38 4 46 -9 46 -28 0 -29 20 -3 30 21 8 26 16 26 45 0 19 -4 35
-10 35 -16 0 -12 22 8 36 13 11 14 15 4 22 -28 19 76 252 182 407 103 152 307
336 438 395 19 9 28 23 33 49 20 112 100 213 209 266 79 39 78 39 -14 19z"/>
<path d="M16147 6733 c-4 -3 -7 -537 -7 -1185 l0 -1178 345 0 345 0 0 366 c0
296 -3 368 -14 379 -7 8 -57 74 -110 148 l-96 134 0 153 c0 128 -3 156 -16
172 -14 14 -14 20 -4 33 7 8 23 15 35 15 12 0 28 -7 35 -15 10 -13 10 -19 -4
-33 -13 -16 -16 -44 -16 -173 l0 -155 93 -128 92 -129 3 789 c1 434 0 795 -3
802 -3 9 -80 12 -338 12 -184 0 -337 -3 -340 -7z m497 -586 c28 -21 16 -51
-22 -57 -18 -3 -62 -28 -102 -60 l-70 -55 0 -317 0 -317 115 -158 115 -158 0
-322 c0 -281 -2 -323 -15 -323 -13 0 -15 43 -15 323 l0 323 -110 152 -110 152
0 329 0 329 75 59 c41 32 74 66 75 75 0 9 8 22 18 27 22 14 25 13 46 -2z
m-391 -322 c9 -8 13 -23 11 -33 -3 -10 8 -36 25 -60 l31 -42 0 -655 c0 -430
-3 -655 -10 -655 -7 0 -10 223 -10 650 l0 651 -32 44 c-18 24 -40 44 -48 45
-17 0 -40 19 -40 31 0 13 31 39 45 39 7 0 20 -7 28 -15z m248 -855 c23 -13 25
-48 4 -56 -13 -5 -15 -45 -15 -270 0 -169 -4 -264 -10 -264 -6 0 -10 95 -10
264 0 225 -2 265 -15 270 -21 7 -19 43 3 55 21 13 20 13 43 1z"/>
<path d="M16600 6120 c0 -5 7 -10 15 -10 8 0 15 5 15 10 0 6 -7 10 -15 10 -8
0 -15 -4 -15 -10z"/>
<path d="M16210 5800 c0 -5 7 -10 15 -10 8 0 15 5 15 10 0 6 -7 10 -15 10 -8
0 -15 -4 -15 -10z"/>
<path d="M16470 4940 c0 -5 7 -10 15 -10 8 0 15 5 15 10 0 6 -7 10 -15 10 -8
0 -15 -4 -15 -10z"/>
<path d="M13690 6600 c-12 -8 -12 -10 3 -16 21 -8 35 2 21 16 -5 5 -15 6 -24
0z"/>
<path d="M17170 5914 c0 -241 4 -403 9 -400 5 4 55 -58 110 -136 l101 -141 0
-158 c0 -127 3 -159 15 -169 34 -28 -5 -71 -45 -50 -23 13 -27 48 -5 56 12 5
15 32 15 158 l0 151 -96 135 c-53 74 -98 137 -101 140 -2 2 -2 -196 -1 -440 3
-445 3 -445 26 -489 36 -66 108 -137 171 -168 l56 -28 734 0 734 0 223 340
224 340 -745 3 -745 2 0 630 0 630 -60 0 -60 0 0 -651 0 -650 30 -44 c18 -26
39 -45 53 -47 27 -4 31 -45 5 -62 -25 -15 -53 4 -53 36 0 13 -12 43 -27 66
l-28 42 0 655 0 655 -70 0 -70 0 0 -262 c0 -220 2 -264 15 -278 28 -31 -8 -70
-49 -54 -18 7 -22 44 -6 60 5 5 11 120 12 272 l3 262 -82 0 -83 0 0 -323 0
-322 110 -154 110 -154 0 -327 0 -326 -66 -53 c-36 -29 -63 -55 -60 -58 3 -3
1 -14 -5 -24 -12 -24 -55 -25 -68 -1 -13 25 5 52 35 52 16 0 49 19 84 48 l59
47 0 315 1 315 -110 155 -110 155 0 327 0 328 -95 0 -95 0 0 -406z"/>
<path d="M24786 6268 c43 -45 539 -583 974 -1058 l123 -135 -54 -7 c-30 -3
-341 -6 -691 -7 -351 -1 -638 -3 -638 -6 0 -3 101 -158 225 -345 l224 -340
511 0 c280 0 510 2 510 5 0 3 -15 14 -32 25 -32 19 -52 20 -455 20 -275 0
-423 3 -423 10 0 7 147 10 421 10 356 0 429 -2 476 -16 46 -13 54 -19 50 -36
-5 -19 0 -19 271 -16 l277 3 63 34 c74 40 124 93 161 171 25 53 26 62 26 225
0 170 0 170 -31 236 -86 181 -213 336 -675 826 -211 223 -391 415 -401 429
l-19 24 -472 0 -471 0 50 -52z m834 -1257 c0 -13 -10 -21 -32 -27 -52 -12
-898 -16 -898 -4 0 7 142 10 424 10 407 0 425 1 447 20 31 25 59 26 59 1z
m241 -118 c8 -9 29 -22 47 -30 22 -9 32 -19 30 -31 -4 -23 -37 -27 -45 -6 -4
10 -18 28 -32 41 -25 22 -33 22 -234 23 l-207 0 -97 -45 -96 -45 -218 0 c-139
0 -219 4 -219 10 0 6 78 10 213 10 l212 0 95 45 95 44 221 0 c195 1 223 -1
235 -16z m-493 -209 c3 -19 -2 -20 -120 -16 l-123 4 -89 -41 c-100 -46 -96
-45 -96 -30 0 6 38 28 84 50 81 37 88 39 187 39 57 0 111 5 119 10 21 13 34 7
38 -16z m80 -163 c-2 -9 -11 -16 -21 -15 -9 0 -111 1 -227 2 -132 1 -210 6
-210 12 0 6 74 10 203 10 111 0 208 4 216 9 20 13 43 2 39 -18z"/>
<path d="M13545 5800 c-8 -13 15 -24 27 -12 6 6 4 11 -6 15 -8 3 -18 2 -21 -3z"/>
<path d="M17542 5759 c2 -6 8 -10 13 -10 5 0 11 4 13 10 2 6 -4 11 -13 11 -9
0 -15 -5 -13 -11z"/>
<path d="M16610 5740 c0 -5 7 -10 15 -10 8 0 15 5 15 10 0 6 -7 10 -15 10 -8
0 -15 -4 -15 -10z"/>
<path d="M13940 5730 c0 -5 6 -10 14 -10 8 0 18 5 21 10 3 6 -3 10 -14 10 -12
0 -21 -4 -21 -10z"/>
<path d="M24300 5730 c0 -5 9 -10 21 -10 11 0 17 5 14 10 -3 6 -13 10 -21 10
-8 0 -14 -4 -14 -10z"/>
<path d="M6440 5615 c0 -8 9 -15 20 -15 11 0 20 7 20 15 0 8 -9 15 -20 15 -11
0 -20 -7 -20 -15z"/>
<path d="M7400 5615 c-11 -13 -8 -15 18 -15 17 0 32 6 36 15 4 11 -1 15 -18
15 -13 0 -29 -7 -36 -15z"/>
<path d="M6426 5558 c-18 -58 -17 -68 9 -68 17 0 25 6 25 18 0 9 3 27 6 40 5
18 2 22 -15 22 -12 0 -23 -6 -25 -12z"/>
<path d="M7357 5535 c-22 -45 -22 -45 6 -45 19 0 28 9 40 40 15 39 15 40 -7
40 -16 0 -27 -10 -39 -35z"/>
<path d="M6406 5423 c-3 -21 -6 -57 -6 -80 0 -39 2 -43 25 -43 25 0 25 1 25
80 0 71 -2 80 -19 80 -14 0 -20 -10 -25 -37z"/>
<path d="M7324 5449 c-4 -7 -9 -43 -12 -80 -5 -68 -4 -69 20 -69 23 0 26 5 32
53 10 90 8 107 -13 107 -11 0 -23 -5 -27 -11z"/>
<path d="M17792 4901 c4 -13 18 -16 19 -4 0 4 -5 9 -11 12 -7 2 -11 -2 -8 -8z"/>
<path d="M17360 4890 c0 -5 7 -10 15 -10 8 0 15 5 15 10 0 6 -7 10 -15 10 -8
0 -15 -4 -15 -10z"/>
<path d="M17422 4601 c4 -13 18 -16 19 -4 0 4 -5 9 -11 12 -7 2 -11 -2 -8 -8z"/>
</g>
</svg>
